# xmcd
#
# Track frame offsets:
#	150
#	12290
#	25432
#	38992
#	54492
#	67092
#	80112
#	94752
#	108197
#	121980
#	134462
#	146530
#	159450
#	172335
#	184117
#	193757
#	204625
#	216025
#	225307
#	238965
#	249832
#	262905
#	274977
#	287805
#	301642
#	314057
#	328272
#	341380
#
# Disc length: 4721 seconds
#
# Revision: 0
# Processed by: cddbd v1.5.2PL0 Copyright (c) Steve Scherf et al.
# Submitted via: EasyCDDAExtractor 10.0.3.1
#
DISCID=a6126f1c
DTITLE=Red Foley - Old Shep (The Red Foley Recordings, 1933-50) - Disc 5
DYEAR=2006
DGENRE=Country
TTITLE0=Tennessee Border
TTITLE1=Candy Kisses
TTITLE2=I'm Throwing Rice (At The Girl I Love)
TTITLE3=Tennessee Polka
TTITLE4=Two Cents, Three Eggs And A Post Card
TTITLE5=I Wish I Had A Nickel
TTITLE6=Sunday, Down In Tennessee
TTITLE7=Every Step Of The Way (with Judy Martin)
TTITLE8=I Gotta Have My Baby Back
TTITLE9=Chattanoogie Shoe Shine Boy
TTITLE10=Careless Kisses
TTITLE11=Church Music
TTITLE12=Have I Told You Lately That I Love You (with Judy Martin)
TTITLE13=Tennessee Border #2 (with Ernest Tubb)
TTITLE14=Don't Be Ashamed Of Your Age (with Ernest Tubb)
TTITLE15=Sugarfoot Rag (with Hank Garland)
TTITLE16=M-I-S-S-I-S-S-I-P-P-I (with The Dixie Dons)
TTITLE17=Choc'late Ice Cream Cone (with The Dixie Dons)
TTITLE18=Birmingham Bounce
TTITLE19=Let's Go To Church (with Judy Martin)
TTITLE20=Old Kentucky Fox Chase
TTITLE21=Remember Me (When The Candle Lights Are Gleaming) (with Judy Martin)
TTITLE22=Cincinnati Dancing Pig
TTITLE23=Hominy Grits
TTITLE24=Hillbilly Fever #2 (with Ernest Tubb)
TTITLE25=Texas Vs. Kentucky (with Ernest Tubb)
TTITLE26=Somebody's Cryin'
TTITLE27=Hobo Boogie
EXTD=
EXTT0=
EXTT1=
EXTT2=
EXTT3=
EXTT4=
EXTT5=
EXTT6=
EXTT7=
EXTT8=
EXTT9=
EXTT10=
EXTT11=
EXTT12=
EXTT13=
EXTT14=
EXTT15=
EXTT16=
EXTT17=
EXTT18=
EXTT19=
EXTT20=
EXTT21=
EXTT22=
EXTT23=
EXTT24=
EXTT25=
EXTT26=
EXTT27=
PLAYORDER=
